<svg width="1440" height="820" viewBox="0 0 1440 820" fill="none" xmlns="http://www.w3.org/2000/svg">
<g clip-path="url(#clip0_)">
<circle cx="881" cy="-137" r="559" transform="rotate(-180 881 -137)" fill="url(#paint0_radial_)"/>
<circle cx="559" cy="-137" r="559" transform="rotate(-180 559 -137)" fill="url(#paint1_radial_)"/>
<rect x="541" y="140" width="358" height="540" fill="#202024"/>
<mask id="mask0_" style="mask-type:alpha" maskUnits="userSpaceOnUse" x="538" y="140" width="358" height="540">
<rect x="538" y="140" width="358" height="540" fill="#202024"/>
</mask>
<g mask="url(#mask0_)">
<path d="M896 201.492V-256.824L716.5 -360L537 -256.824V201.492L716.5 304.674L896 201.492Z" fill="url(#paint2_linear_)"/>
<g style="mix-blend-mode:luminosity" opacity="0.4">
<path d="M538.801 99.3496V202.159L628.101 253.569L717.4 202.159V99.3496L628.101 47.9399L538.801 99.3496Z" fill="url(#paint3_linear_)"/>
<path d="M538.801 -3.46506V99.3445L628.101 150.754L717.4 99.3445V-3.46506L628.101 -54.8747L538.801 -3.46506Z" fill="url(#paint4_linear_)"/>
<path d="M717.4 202.159V99.3492L806.7 47.9395L896 99.3492V202.159L806.7 253.568L717.4 202.159Z" fill="url(#paint5_linear_)"/>
<path d="M896 -3.46506V99.3445L806.7 150.754L717.4 99.3445V-3.46506L806.7 -54.8747L896 -3.46506Z" fill="url(#paint6_linear_)"/>
<path d="M806.7 253.59V150.781L717.4 99.3711L628.101 150.781V253.59L717.4 305L806.7 253.59Z" fill="url(#paint7_linear_)"/>
</g>
</g>
<rect x="680" y="156" width="80" height="8" fill="#121214"/>
<rect x="688" width="64" height="158" fill="url(#paint8_linear_)"/>
</g>
<defs>
<radialGradient id="paint0_radial_" cx="0" cy="0" r="1" gradientUnits="userSpaceOnUse" gradientTransform="translate(881 -137) rotate(90) scale(559)">
<stop stop-color="#FF23E9"/>
<stop offset="1" stop-color="#121214" stop-opacity="0"/>
</radialGradient>
<radialGradient id="paint1_radial_" cx="0" cy="0" r="1" gradientUnits="userSpaceOnUse" gradientTransform="translate(559 -137) rotate(90) scale(559)">
<stop stop-color="#4D3DFF"/>
<stop offset="1" stop-color="#121214" stop-opacity="0"/>
</radialGradient>
<linearGradient id="paint2_linear_" x1="537" y1="-344.234" x2="976.976" y2="-283.679" gradientUnits="userSpaceOnUse">
<stop stop-color="#000AFF"/>
<stop offset="1" stop-color="#FB1EFF"/>
</linearGradient>
<linearGradient id="paint3_linear_" x1="628.101" y1="248.84" x2="539.185" y2="97.1039" gradientUnits="userSpaceOnUse">
<stop stop-color="#8257E5"/>
<stop offset="1" stop-color="#FF008E" stop-opacity="0"/>
</linearGradient>
<linearGradient id="paint4_linear_" x1="628.101" y1="146.026" x2="539.185" y2="-5.71074" gradientUnits="userSpaceOnUse">
<stop stop-color="#8257E5"/>
<stop offset="1" stop-color="#FF008E" stop-opacity="0"/>
</linearGradient>
<linearGradient id="paint5_linear_" x1="896" y1="207.937" x2="717.676" y2="100.328" gradientUnits="userSpaceOnUse">
<stop stop-color="#001AFF" stop-opacity="0"/>
<stop offset="1" stop-color="#FF1EF6"/>
</linearGradient>
<linearGradient id="paint6_linear_" x1="806.7" y1="146.026" x2="895.615" y2="-5.71073" gradientUnits="userSpaceOnUse">
<stop stop-color="#8257E5"/>
<stop offset="1" stop-color="#FF008E" stop-opacity="0"/>
</linearGradient>
<linearGradient id="paint7_linear_" x1="717.4" y1="104.099" x2="806.316" y2="255.836" gradientUnits="userSpaceOnUse">
<stop stop-color="#8257E5"/>
<stop offset="1" stop-color="#FF008E" stop-opacity="0"/>
</linearGradient>
<linearGradient id="paint8_linear_" x1="649.5" y1="4.93019e-08" x2="782" y2="158" gradientUnits="userSpaceOnUse">
<stop stop-color="#001AFF"/>
<stop offset="1" stop-color="#FB1EFF"/>
</linearGradient>
<clipPath id="clip0_">
<rect width="1440" height="820" fill="white"/>
</clipPath>
</defs>
</svg>
